<svg width="124" height="124" viewBox="0 0 124 124" fill="none" xmlns="http://www.w3.org/2000/svg">
<g clip-path="url(#clip0_4327_347)">
<path d="M0 62C1.46535 69.967 2.74575 77.9624 4.21111 85.9293C8.80633 92.6016 13.5581 99.1602 18.1533 105.832C24.8256 110.428 31.3841 115.179 38.0564 119.775C46.0234 121.24 54.0188 122.52 61.9858 123.986C69.9527 122.52 77.9481 121.24 85.9151 119.775C92.5874 115.179 99.1459 110.428 105.818 105.832C110.413 99.1602 115.165 92.6016 119.76 85.9293C121.226 77.9624 122.506 69.967 123.972 62C122.506 54.033 121.226 46.0376 119.76 38.0707C115.165 31.3983 110.413 24.8398 105.818 18.1675C99.1459 13.5723 92.5874 8.82056 85.9151 4.22533C77.9624 2.74575 69.967 1.46535 62 0C54.033 1.46535 46.0376 2.74575 38.0707 4.21111C31.3983 8.80633 24.8398 13.5581 18.1675 18.1533C13.5723 24.8256 8.82056 31.3841 4.22533 38.0564C2.74575 46.0234 1.46535 54.033 0 62ZM10.0583 83.5108C8.74943 76.3547 7.58284 69.156 6.28821 62C7.58284 54.8297 8.74943 47.6452 10.0583 40.4892C14.1983 34.4998 18.452 28.5957 22.6062 22.6062C28.5957 18.4663 34.4998 14.1983 40.4892 10.0583C47.6452 8.74943 54.844 7.58284 62 6.28821C69.1703 7.58284 76.3547 8.74943 83.5108 10.0583C89.5002 14.1983 95.4043 18.452 101.394 22.6062C105.534 28.5957 109.802 34.4998 113.942 40.4892C115.251 47.6452 116.417 54.844 117.712 62C116.403 69.156 115.236 76.3547 113.927 83.5108C109.788 89.5002 105.534 95.4043 101.38 101.394C95.3901 105.534 89.486 109.802 83.4966 113.942C76.3405 115.251 69.1418 116.417 61.9858 117.712C54.8155 116.417 47.631 115.251 40.475 113.942C34.4855 109.802 28.5815 105.548 22.592 101.394C18.4663 95.4043 14.1983 89.5002 10.0583 83.5108Z" fill="white" fill-opacity="0.05"/>
<path d="M55.0713 61.9999C55.1993 62.8962 55.3274 63.8067 55.4696 64.703C56.0103 65.4286 56.5509 66.1684 57.1057 66.8939C57.8313 67.4345 58.5568 67.9894 59.2966 68.53C60.1929 68.658 61.1034 68.8003 61.9997 68.9284C62.896 68.8003 63.8065 68.6723 64.7028 68.53C65.4283 67.9894 66.1681 67.4488 66.8937 66.8939C67.4343 66.1684 67.9891 65.4428 68.5298 64.703C68.6578 63.8067 68.8001 62.8962 68.9281 61.9999C68.8001 61.1037 68.672 60.1932 68.5298 59.2969C67.9891 58.5713 67.4485 57.8315 66.8937 57.106C66.1681 56.5653 65.4426 56.0105 64.7028 55.4699C63.8065 55.3418 62.896 55.1996 61.9997 55.0715C61.1034 55.1996 60.1929 55.3276 59.2966 55.4699C58.5711 56.0105 57.8313 56.5511 57.1057 57.106C56.5651 57.8315 56.0103 58.5571 55.4696 59.2969C55.3416 60.1932 55.1993 61.0894 55.0713 61.9999ZM60.8331 62.4836C60.8047 62.3272 60.7904 62.1564 60.762 61.9999C60.7904 61.8435 60.8047 61.6727 60.8331 61.5162C60.9327 61.3882 61.0323 61.2602 61.1319 61.1179C61.2599 61.0183 61.3879 60.9187 61.5302 60.8334C61.6867 60.8049 61.8574 60.7907 62.0139 60.7622C62.1704 60.7907 62.3411 60.8049 62.4976 60.8334C62.6257 60.9329 62.7537 61.0325 62.896 61.1179C62.9956 61.2459 63.0952 61.374 63.1805 61.5162C63.209 61.6727 63.2232 61.8435 63.2516 61.9999C63.2232 62.1564 63.209 62.3272 63.1805 62.4836C63.0809 62.6117 62.9813 62.7397 62.896 62.882C62.7679 62.9816 62.6399 63.0812 62.4976 63.1808C62.3411 63.2092 62.1704 63.2234 62.0139 63.2519C61.8574 63.2234 61.6867 63.2092 61.5302 63.1808C61.4022 63.0812 61.2741 62.9816 61.1319 62.882C61.0181 62.7397 60.9327 62.6117 60.8331 62.4836Z" fill="white" fill-opacity="0.05"/>
<path d="M15.2227 61.9999C16.3039 68.0178 17.2998 74.05 18.381 80.0679C21.8808 85.0899 25.4374 90.055 28.923 95.077C33.945 98.5626 38.9101 102.133 43.9321 105.619C49.95 106.7 55.9822 107.682 62.0001 108.777C68.018 107.696 74.0501 106.7 80.068 105.619C85.09 102.119 90.0551 98.5626 95.0772 95.077C98.5627 90.055 102.134 85.0899 105.619 80.0679C106.7 74.05 107.682 68.0178 108.777 61.9999C107.696 55.982 106.7 49.9499 105.619 43.932C102.119 38.91 98.5627 33.9449 95.0772 28.9229C90.0551 25.4373 85.09 21.8664 80.068 18.3809C74.0501 17.2996 68.018 16.318 62.0001 15.2225C55.9822 16.3038 49.95 17.2996 43.9321 18.3809C38.9101 21.8806 33.945 25.4373 28.923 28.9229C25.4374 33.9449 21.8665 38.91 18.381 43.932C17.2998 49.9499 16.3181 55.982 15.2227 61.9999ZM47.9583 67.8044C47.6595 65.8696 47.375 63.9348 47.1047 61.9857C47.375 60.0509 47.6595 58.1018 47.9583 56.167C49.1107 54.5878 50.2773 53.0087 51.4581 51.4437C53.023 50.2629 54.588 49.0963 56.1813 47.944C58.1162 47.6452 60.051 47.3607 62.0001 47.0904C63.9349 47.3607 65.884 47.6452 67.8188 47.944C69.3979 49.0963 70.9771 50.2629 72.5421 51.4437C73.7229 53.0087 74.8895 54.5736 76.0418 56.167C76.3406 58.1018 76.6251 60.0367 76.8954 61.9857C76.6251 63.9205 76.3406 65.8696 76.0418 67.8044C74.8895 69.3836 73.7229 70.9628 72.5421 72.5277C70.9771 73.7085 69.4122 74.8751 67.8188 76.0275C65.884 76.3262 63.9491 76.6108 62.0001 76.8811C60.0652 76.6108 58.1162 76.3262 56.1813 76.0275C54.6022 74.8751 53.023 73.7085 51.4581 72.5277C50.2915 70.9628 49.1249 69.3836 47.9583 67.8044ZM33.5324 63.1808C33.504 62.9816 33.5182 62.9958 33.5467 63.2377C33.5893 63.5364 33.5893 63.508 33.5324 63.1523C33.5324 63.1665 33.5324 63.1665 33.5324 63.1808ZM42.7087 82.9559C42.5522 82.8421 42.5664 82.8421 42.7656 82.9986C43.0074 83.1835 42.979 83.1693 42.6944 82.9417L42.7087 82.9559ZM63.1809 90.4534C62.9817 90.4818 62.9959 90.4676 63.2378 90.4391C63.5365 90.3964 63.5081 90.3965 63.1524 90.4534C63.1667 90.4534 63.1667 90.4534 63.1809 90.4534ZM82.956 81.2914C82.8422 81.4478 82.8422 81.4336 82.9987 81.2344C83.1836 80.9926 83.1694 81.021 82.9418 81.3056L82.956 81.2914ZM90.4535 60.8191C90.4819 61.0183 90.4819 61.0041 90.4392 60.7622C90.3966 60.4635 90.3966 60.4919 90.4535 60.8476C90.4535 60.8334 90.4535 60.8191 90.4535 60.8191ZM81.2915 41.044C81.448 41.1578 81.4337 41.1578 81.2346 41.0013C80.9927 40.8164 81.0212 40.8306 81.3057 41.0582C81.3057 41.044 81.2915 41.044 81.2915 41.044ZM60.8192 33.5323C61.0184 33.5039 61.0042 33.5181 60.7481 33.5465C60.4494 33.5892 60.4778 33.5892 60.8335 33.5323H60.8192ZM41.0441 42.7085C41.1579 42.552 41.1579 42.5663 41.0014 42.7654C40.8165 43.0073 40.8307 42.9788 41.0584 42.6943C41.0441 42.6943 41.0441 42.7085 41.0441 42.7085ZM33.5324 60.8476C33.5751 60.4919 33.5893 60.4492 33.5467 60.7622C33.5182 61.0041 33.5182 61.0183 33.5324 60.8191C33.5324 60.8191 33.5324 60.8334 33.5324 60.8476ZM41.0584 81.3056C40.8307 81.021 40.8165 80.9926 41.0014 81.2344C41.1579 81.4336 41.1579 81.4478 41.0441 81.2914C41.0441 81.2914 41.0441 81.3056 41.0584 81.3056ZM60.8477 90.4534C60.492 90.4107 60.4494 90.3964 60.7623 90.4391C61.0042 90.4676 61.0184 90.4676 60.8335 90.4534C60.8192 90.4534 60.8335 90.4534 60.8477 90.4534ZM81.3057 82.9417C81.0212 83.1693 80.9927 83.1835 81.2346 82.9986C81.4337 82.8421 81.448 82.8421 81.2915 82.9559L81.3057 82.9417ZM90.4535 63.1523C90.4108 63.508 90.3966 63.5507 90.4392 63.2377C90.4677 62.9958 90.4677 62.9816 90.4535 63.1808C90.4535 63.1665 90.4535 63.1665 90.4535 63.1523ZM82.9418 42.6943C83.1694 42.9788 83.1836 43.0073 82.9987 42.7654C82.8422 42.5663 82.8422 42.552 82.956 42.7085L82.9418 42.6943ZM63.1524 33.5323C63.5081 33.575 63.5508 33.5892 63.2378 33.5465C62.9959 33.5181 62.9817 33.5181 63.1809 33.5323C63.1667 33.5323 63.1667 33.5323 63.1524 33.5323ZM42.6944 41.0582C42.979 40.8306 43.0074 40.8164 42.7656 41.0013C42.5664 41.1578 42.5522 41.1578 42.7087 41.044C42.7087 41.044 42.6944 41.044 42.6944 41.0582ZM33.6747 61.9999C33.6036 62.1849 33.5609 62.3841 33.5324 62.5975C33.4897 62.8109 33.504 63.0243 33.5467 63.2377C33.5467 63.4084 33.5893 63.5649 33.6605 63.7214C33.8312 64.0913 33.945 64.3758 34.2438 64.6603C34.9124 65.3148 35.7802 65.3717 36.6623 65.3005C38.8674 65.0871 40.9445 64.2904 43.0074 63.5507C43.2493 65.2863 43.5054 67.022 43.7614 68.7576C38.4549 69.5686 30.4452 70.2372 29.677 63.6787C29.6059 63.0812 29.6059 62.5263 29.677 62.0142C29.6059 61.502 29.6059 60.9472 29.677 60.3496C30.4452 53.7911 38.4549 54.4598 43.7614 55.2707C43.4911 57.0064 43.2493 58.742 43.0074 60.4777C40.9303 59.7379 38.8674 58.9412 36.6623 58.7278C35.7802 58.6424 34.9124 58.7136 34.2438 59.368C33.945 59.6525 33.8312 59.9371 33.6605 60.307C33.5893 60.4635 33.5467 60.62 33.5467 60.7907C33.504 61.0041 33.4897 61.2175 33.5324 61.4309C33.5609 61.6158 33.6036 61.815 33.6747 61.9999ZM41.9689 41.9687C41.7839 42.0541 41.6132 42.1537 41.4425 42.296C41.2575 42.4098 41.1153 42.5663 41.0014 42.7512C40.8876 42.8792 40.788 43.0073 40.7454 43.1638C40.6173 43.5479 40.4893 43.8182 40.4893 44.245C40.5035 45.1698 41.0726 45.8384 41.7555 46.4075C43.4627 47.8159 45.4971 48.7122 47.4746 49.6654C46.4218 51.0596 45.369 52.468 44.3305 53.8765C40.0056 50.7039 33.8739 45.5112 37.9569 40.3184C38.3268 39.849 38.7252 39.4648 39.1378 39.1519C39.4507 38.7393 39.8349 38.3409 40.3043 37.971C45.4829 33.8737 50.6756 40.0197 53.8624 44.3446C52.4539 45.3832 51.0455 46.4217 49.6513 47.4887C48.7123 45.497 47.816 43.4768 46.3934 41.7696C45.8243 41.0867 45.1556 40.5176 44.2309 40.5034C43.8183 40.5034 43.5338 40.6172 43.1497 40.7595C42.9932 40.8164 42.8509 40.9017 42.7371 41.0156C42.5522 41.1294 42.4099 41.2716 42.2819 41.4566C42.1538 41.6131 42.0542 41.7838 41.9689 41.9687ZM62.0001 33.6746C61.8151 33.6034 61.6159 33.5608 61.4025 33.5323C61.1891 33.4896 60.9757 33.5039 60.7623 33.5465C60.5916 33.5465 60.4351 33.5892 60.2786 33.6603C59.9087 33.8311 59.6242 33.9449 59.3397 34.2436C58.6852 34.9123 58.6283 35.7801 58.6995 36.6622C58.9129 38.8673 59.7096 40.9444 60.4494 43.0073C58.7137 43.2491 56.978 43.5052 55.2424 43.7613C54.4315 38.4547 53.7628 30.4451 60.3213 29.6769C60.9188 29.6057 61.4737 29.6057 61.9858 29.6769C62.498 29.6057 63.0528 29.6057 63.6504 29.6769C70.2089 30.4451 69.5402 38.4547 68.7293 43.7613C66.9936 43.491 65.258 43.2491 63.5223 43.0073C64.2621 40.9302 65.0588 38.8673 65.2722 36.6622C65.3576 35.7801 65.2864 34.9123 64.632 34.2436C64.3475 33.9449 64.0629 33.8311 63.693 33.6603C63.5365 33.5892 63.3801 33.5465 63.2093 33.5465C62.9959 33.5039 62.7825 33.4896 62.5691 33.5323C62.3842 33.5608 62.185 33.6034 62.0001 33.6746ZM82.0313 41.9687C81.9459 41.7838 81.8463 41.6131 81.7041 41.4424C81.5902 41.2574 81.4337 41.1151 81.2488 41.0013C81.1208 40.8875 80.9927 40.7879 80.8362 40.7452C80.4521 40.6172 80.1818 40.4892 79.755 40.4892C78.8303 40.5034 78.1616 41.0725 77.5925 41.7553C76.1841 43.4625 75.2878 45.497 74.3346 47.4745C72.9404 46.4217 71.532 45.3689 70.1235 44.3304C73.2961 40.0055 78.4888 33.8737 83.6816 37.9568C84.151 38.3267 84.5352 38.7251 84.8482 39.1376C85.2607 39.4506 85.6591 39.8347 86.029 40.3042C90.1263 45.4827 83.9803 50.6755 79.6554 53.8623C78.6169 52.4538 77.5641 51.0454 76.5113 49.6512C78.503 48.7122 80.5232 47.8159 82.2304 46.3932C82.9133 45.8242 83.4824 45.1698 83.4966 44.2308C83.4966 43.8182 83.3828 43.5337 83.2405 43.1496C83.1836 42.9931 83.0983 42.8508 82.9845 42.737C82.8706 42.552 82.7141 42.4098 82.5434 42.2817C82.3727 42.1537 82.2162 42.0541 82.0313 41.9687ZM90.3254 61.9999C90.3966 61.815 90.4392 61.6158 90.4677 61.4024C90.5104 61.189 90.4962 60.9756 90.4535 60.7622C90.4535 60.5915 90.4108 60.435 90.3397 60.2785C90.1689 59.9086 90.0551 59.6241 89.7564 59.3395C89.0877 58.6851 88.2199 58.6282 87.3378 58.6993C85.1327 58.9127 83.0556 59.7094 80.9927 60.4492C80.7509 58.7136 80.4948 56.9779 80.2387 55.2423C85.5453 54.4313 93.5549 53.7627 94.3231 60.3212C94.3943 60.9187 94.3943 61.4736 94.3231 61.9857C94.3943 62.4979 94.3943 63.0527 94.3231 63.6502C93.5549 70.2088 85.5453 69.5401 80.2387 68.7292C80.509 66.9935 80.7509 65.2579 80.9927 63.5222C83.0698 64.262 85.1327 65.0587 87.3378 65.2721C88.2199 65.3574 89.0877 65.2863 89.7564 64.6319C90.0551 64.3474 90.1689 64.0628 90.3397 63.6929C90.4108 63.5364 90.4535 63.3799 90.4535 63.2092C90.4962 62.9958 90.5104 62.7824 90.4677 62.569C90.4392 62.3841 90.3966 62.1849 90.3254 61.9999ZM82.0313 82.0311C82.2162 81.9458 82.3869 81.8462 82.5577 81.7039C82.7426 81.5901 82.8849 81.4336 82.9987 81.2487C83.1125 81.1206 83.2121 80.9926 83.2548 80.8361C83.3828 80.452 83.5108 80.1817 83.5108 79.7549C83.4966 78.8301 82.9276 78.1615 82.2447 77.5924C80.5375 76.184 78.503 75.2877 76.5255 74.3345C77.5783 72.9403 78.6311 71.5318 79.6696 70.1234C83.9946 73.2959 90.1263 78.4887 86.0432 83.6814C85.6733 84.1509 85.275 84.535 84.8624 84.848C84.5494 85.2606 84.1653 85.659 83.6958 86.0289C78.5173 90.1261 73.3245 83.9802 70.1377 79.6553C71.5462 78.6167 72.9546 77.5782 74.3488 76.5112C75.2878 78.5029 76.1841 80.5231 77.6068 82.2303C78.1758 82.9132 78.8445 83.4823 79.7692 83.4965C80.1818 83.4965 80.4663 83.3827 80.8505 83.2404C81.0069 83.1835 81.1492 83.0982 81.263 82.9843C81.448 82.8705 81.5902 82.714 81.7183 82.5433C81.8321 82.3726 81.9459 82.2161 82.0313 82.0311ZM62.0001 90.3253C62.185 90.3965 62.3842 90.4391 62.5976 90.4676C62.811 90.5103 63.0244 90.496 63.2378 90.4534C63.4085 90.4534 63.565 90.4107 63.7215 90.3395C64.0914 90.1688 64.3759 90.055 64.6605 89.7562C65.3149 89.0876 65.3718 88.2198 65.3007 87.3377C65.0873 85.1326 64.2906 83.0555 63.5508 80.9926C65.2864 80.7507 67.0221 80.4947 68.7578 80.2386C69.5687 85.5451 70.2373 93.5548 63.6788 94.323C63.0813 94.3942 62.5265 94.3942 62.0143 94.323C61.5021 94.3942 60.9473 94.3942 60.3498 94.323C53.7913 93.5548 54.4599 85.5451 55.2708 80.2386C57.0065 80.5089 58.7421 80.7507 60.4778 80.9926C59.738 83.0697 58.9413 85.1326 58.7279 87.3377C58.6426 88.2198 58.7137 89.0876 59.3681 89.7562C59.6527 90.055 59.9372 90.1688 60.3071 90.3395C60.4636 90.4107 60.6201 90.4534 60.7908 90.4534C61.0042 90.496 61.2176 90.5103 61.431 90.4676C61.6159 90.4391 61.8151 90.3965 62.0001 90.3253ZM41.9689 82.0311C42.0542 82.2161 42.1538 82.3868 42.2961 82.5575C42.4099 82.7425 42.5664 82.8848 42.7513 82.9986C42.8794 83.1124 43.0074 83.212 43.1639 83.2546C43.548 83.3827 43.8183 83.5107 44.2451 83.5107C45.1699 83.4965 45.8385 82.9274 46.4076 82.2445C47.816 80.5373 48.7123 78.5029 49.6655 76.5254C51.0597 77.5782 52.4682 78.631 53.8766 79.6695C50.7041 83.9944 45.5113 90.1261 40.3186 86.0431C39.8491 85.6732 39.465 85.2748 39.152 84.8623C38.7394 84.5493 38.3411 84.1652 37.9712 83.6957C33.8739 78.5172 40.0198 73.3244 44.3447 70.1376C45.3833 71.5461 46.4361 72.9545 47.4888 74.3487C45.4971 75.2877 43.4769 76.184 41.7697 77.6066C41.0868 78.1757 40.5177 78.8444 40.5035 79.7691C40.5035 80.1817 40.6173 80.4662 40.7596 80.8503C40.8165 81.0068 40.9019 81.1491 41.0157 81.2629C41.1295 81.4478 41.286 81.5901 41.4567 81.7182C41.6132 81.832 41.7839 81.9458 41.9689 82.0311ZM24.4273 61.9999C24.3277 62.8535 24.3562 63.7783 24.5127 64.7884C25.5228 70.9059 30.8009 72.5419 36.3778 72.6131C32.4797 76.6108 29.9046 81.4905 33.5182 86.541C34.1157 87.3662 34.7559 88.0348 35.4246 88.5754C35.951 89.2441 36.6338 89.8843 37.459 90.4818C42.5095 94.0954 47.3892 91.5204 51.3869 87.6222C51.4581 93.1991 53.0941 98.4772 59.2116 99.4873C60.2217 99.658 61.1465 99.6723 62.0001 99.5727C62.8537 99.6723 63.7784 99.6438 64.7885 99.4873C70.906 98.4772 72.5421 93.1991 72.6132 87.6222C76.6109 91.5204 81.4907 94.0954 86.5411 90.4818C87.3663 89.8843 88.0349 89.2441 88.5755 88.5754C89.2442 88.049 89.8844 87.3662 90.4819 86.541C94.0955 81.4905 91.5205 76.6108 87.6224 72.6131C93.1992 72.5419 98.4773 70.9059 99.4874 64.7884C99.6582 63.7783 99.6724 62.8535 99.5728 61.9999C99.6724 61.1463 99.6439 60.2216 99.4874 59.2115C98.4773 53.094 93.1992 51.458 87.6224 51.3868C91.5205 47.3891 94.0955 42.5094 90.4819 37.4589C89.8844 36.6337 89.2442 35.9651 88.5755 35.4245C88.0492 34.7558 87.3663 34.1156 86.5411 33.5181C81.4907 29.9045 76.6109 32.4795 72.6132 36.3776C72.5421 30.8008 70.906 25.5227 64.7885 24.5126C63.7784 24.3419 62.8537 24.3276 62.0001 24.4272C61.1465 24.3276 60.2217 24.3561 59.2116 24.5126C53.0941 25.5227 51.4581 30.8008 51.3869 36.3776C47.3892 32.4795 42.5095 29.9045 37.459 33.5181C36.6338 34.1156 35.9652 34.7558 35.4246 35.4245C34.7559 35.9508 34.1157 36.6337 33.5182 37.4589C29.9046 42.5094 32.4797 47.3891 36.3778 51.3868C30.8009 51.458 25.5228 53.094 24.5127 59.2115C24.3562 60.2216 24.3277 61.1463 24.4273 61.9999ZM22.0372 78.5456C21.0556 73.0399 20.1451 67.5057 19.1635 61.9999C20.1451 56.48 21.0556 50.96 22.0372 45.4543C25.2383 40.8591 28.4962 36.3065 31.6972 31.7113C36.2924 28.5103 40.845 25.2524 45.4402 22.0514C50.9459 21.0697 56.4801 20.1592 61.9858 19.1776C67.5058 20.1592 73.0258 21.0697 78.5315 22.0514C83.1267 25.2524 87.6793 28.5103 92.2745 31.7113C95.4755 36.3065 98.7334 40.8591 101.934 45.4543C102.916 50.96 103.827 56.4942 104.808 61.9999C103.827 67.5057 102.916 73.0399 101.934 78.5456C98.7334 83.1408 95.4755 87.6934 92.2745 92.2886C87.6793 95.4896 83.1267 98.7475 78.5315 101.949C73.0258 102.93 67.4916 103.841 61.9858 104.822C56.4659 103.841 50.9459 102.93 45.4402 101.949C40.845 98.7475 36.2924 95.4896 31.6972 92.2886C28.5104 87.6934 25.2383 83.1408 22.0372 78.5456Z" fill="white" fill-opacity="0.05"/>
</g>
<defs>
<clipPath id="clip0_4327_347">
<rect width="124" height="124" fill="white"/>
</clipPath>
</defs>
</svg>
